<svg width="109" height="125" viewBox="0 0 109 125" fill="none" xmlns="http://www.w3.org/2000/svg">
<path d="M32.3894 9.88041L28.2877 17.3106H22.1896V23.9928H24.5229L26.912 35.8791H23.1802L28.1154 57.7082L31.2797 57.6784L34.4617 73.5394H64.5873L64.7976 72.4831L67.7668 57.6764L70.7766 57.7062L75.6991 35.8772H72.1345L74.5084 23.9908H77.0697V17.3086H70.5916L66.4747 9.87842L32.3894 9.88041ZM34.1729 12.015H64.719L67.3159 16.7397H31.5558L34.1729 12.015ZM24.8852 19.4352H74.3513V21.8781H24.8852V19.4352ZM26.4154 38.0018H72.4816L68.5091 55.5538L49.4168 55.3966L30.3879 55.5538L26.4154 38.0018Z" fill="#30261C" fill-opacity="0.8"/>
<path d="M0.666 106.575C0.666 105.351 0.948 104.253 1.512 103.281C2.088 102.309 2.862 101.553 3.834 101.013C4.818 100.461 5.892 100.185 7.056 100.185C8.388 100.185 9.57 100.515 10.602 101.175C11.646 101.823 12.402 102.747 12.87 103.947H10.404C10.08 103.287 9.63 102.795 9.054 102.471C8.478 102.147 7.812 101.985 7.056 101.985C6.228 101.985 5.49 102.171 4.842 102.543C4.194 102.915 3.684 103.449 3.312 104.145C2.952 104.841 2.772 105.651 2.772 106.575C2.772 107.499 2.952 108.309 3.312 109.005C3.684 109.701 4.194 110.241 4.842 110.625C5.49 110.997 6.228 111.183 7.056 111.183C7.812 111.183 8.478 111.021 9.054 110.697C9.63 110.373 10.08 109.881 10.404 109.221H12.87C12.402 110.421 11.646 111.345 10.602 111.993C9.57 112.641 8.388 112.965 7.056 112.965C5.88 112.965 4.806 112.695 3.834 112.155C2.862 111.603 2.088 110.841 1.512 109.869C0.948 108.897 0.666 107.799 0.666 106.575ZM19.5739 113.019C18.6379 113.019 17.7919 112.809 17.0359 112.389C16.2799 111.957 15.6859 111.357 15.2539 110.589C14.8219 109.809 14.6059 108.909 14.6059 107.889C14.6059 106.881 14.8279 105.987 15.2719 105.207C15.7159 104.427 16.3219 103.827 17.0899 103.407C17.8579 102.987 18.7159 102.777 19.6639 102.777C20.6119 102.777 21.4699 102.987 22.2379 103.407C23.0059 103.827 23.6119 104.427 24.0559 105.207C24.4999 105.987 24.7219 106.881 24.7219 107.889C24.7219 108.897 24.4939 109.791 24.0379 110.571C23.5819 111.351 22.9579 111.957 22.1659 112.389C21.3859 112.809 20.5219 113.019 19.5739 113.019ZM19.5739 111.237C20.1019 111.237 20.5939 111.111 21.0499 110.859C21.5179 110.607 21.8959 110.229 22.1839 109.725C22.4719 109.221 22.6159 108.609 22.6159 107.889C22.6159 107.169 22.4779 106.563 22.2019 106.071C21.9259 105.567 21.5599 105.189 21.1039 104.937C20.6479 104.685 20.1559 104.559 19.6279 104.559C19.0999 104.559 18.6079 104.685 18.1519 104.937C17.7079 105.189 17.3539 105.567 17.0899 106.071C16.8259 106.563 16.6939 107.169 16.6939 107.889C16.6939 108.957 16.9639 109.785 17.5039 110.373C18.0559 110.949 18.7459 111.237 19.5739 111.237ZM28.8024 99.5372V112.857H26.7504V99.5372H28.8024ZM30.8125 107.853C30.8125 106.857 31.0165 105.975 31.4245 105.207C31.8445 104.439 32.4085 103.845 33.1165 103.425C33.8365 102.993 34.6345 102.777 35.5105 102.777C36.1585 102.777 36.7945 102.921 37.4185 103.209C38.0545 103.485 38.5585 103.857 38.9305 104.325V99.5372H41.0005V112.857H38.9305V111.363C38.5945 111.843 38.1265 112.239 37.5265 112.551C36.9385 112.863 36.2605 113.019 35.4925 113.019C34.6285 113.019 33.8365 112.803 33.1165 112.371C32.4085 111.927 31.8445 111.315 31.4245 110.535C31.0165 109.743 30.8125 108.849 30.8125 107.853ZM38.9305 107.889C38.9305 107.205 38.7865 106.611 38.4985 106.107C38.2225 105.603 37.8565 105.219 37.4005 104.955C36.9445 104.691 36.4525 104.559 35.9245 104.559C35.3965 104.559 34.9045 104.691 34.4485 104.955C33.9925 105.207 33.6205 105.585 33.3325 106.089C33.0565 106.581 32.9185 107.169 32.9185 107.853C32.9185 108.537 33.0565 109.137 33.3325 109.653C33.6205 110.169 33.9925 110.565 34.4485 110.841C34.9165 111.105 35.4085 111.237 35.9245 111.237C36.4525 111.237 36.9445 111.105 37.4005 110.841C37.8565 110.577 38.2225 110.193 38.4985 109.689C38.7865 109.173 38.9305 108.573 38.9305 107.889ZM47.6875 106.575C47.6875 105.351 47.9695 104.253 48.5335 103.281C49.1095 102.309 49.8835 101.553 50.8555 101.013C51.8395 100.461 52.9135 100.185 54.0775 100.185C55.4095 100.185 56.5915 100.515 57.6235 101.175C58.6675 101.823 59.4235 102.747 59.8915 103.947H57.4255C57.1015 103.287 56.6515 102.795 56.0755 102.471C55.4995 102.147 54.8335 101.985 54.0775 101.985C53.2495 101.985 52.5115 102.171 51.8635 102.543C51.2155 102.915 50.7055 103.449 50.3335 104.145C49.9735 104.841 49.7935 105.651 49.7935 106.575C49.7935 107.499 49.9735 108.309 50.3335 109.005C50.7055 109.701 51.2155 110.241 51.8635 110.625C52.5115 110.997 53.2495 111.183 54.0775 111.183C54.8335 111.183 55.4995 111.021 56.0755 110.697C56.6515 110.373 57.1015 109.881 57.4255 109.221H59.8915C59.4235 110.421 58.6675 111.345 57.6235 111.993C56.5915 112.641 55.4095 112.965 54.0775 112.965C52.9015 112.965 51.8275 112.695 50.8555 112.155C49.8835 111.603 49.1095 110.841 48.5335 109.869C47.9695 108.897 47.6875 107.799 47.6875 106.575ZM66.5954 113.019C65.6594 113.019 64.8134 112.809 64.0574 112.389C63.3014 111.957 62.7074 111.357 62.2754 110.589C61.8434 109.809 61.6274 108.909 61.6274 107.889C61.6274 106.881 61.8494 105.987 62.2934 105.207C62.7374 104.427 63.3434 103.827 64.1114 103.407C64.8794 102.987 65.7374 102.777 66.6854 102.777C67.6334 102.777 68.4914 102.987 69.2594 103.407C70.0274 103.827 70.6334 104.427 71.0774 105.207C71.5214 105.987 71.7434 106.881 71.7434 107.889C71.7434 108.897 71.5154 109.791 71.0594 110.571C70.6034 111.351 69.9794 111.957 69.1874 112.389C68.4074 112.809 67.5434 113.019 66.5954 113.019ZM66.5954 111.237C67.1234 111.237 67.6154 111.111 68.0714 110.859C68.5394 110.607 68.9174 110.229 69.2054 109.725C69.4934 109.221 69.6374 108.609 69.6374 107.889C69.6374 107.169 69.4994 106.563 69.2234 106.071C68.9474 105.567 68.5814 105.189 68.1254 104.937C67.6694 104.685 67.1774 104.559 66.6494 104.559C66.1214 104.559 65.6294 104.685 65.1734 104.937C64.7294 105.189 64.3754 105.567 64.1114 106.071C63.8474 106.563 63.7154 107.169 63.7154 107.889C63.7154 108.957 63.9854 109.785 64.5254 110.373C65.0774 110.949 65.7674 111.237 66.5954 111.237ZM77.9299 104.613H76.0939V112.857H74.0239V104.613H72.8539V102.939H74.0239V102.237C74.0239 101.097 74.3239 100.269 74.9239 99.7532C75.5359 99.2252 76.4899 98.9612 77.7859 98.9612V100.671C77.1619 100.671 76.7239 100.791 76.4719 101.031C76.2199 101.259 76.0939 101.661 76.0939 102.237V102.939H77.9299V104.613ZM83.9064 104.613H82.0704V112.857H80.0004V104.613H78.8304V102.939H80.0004V102.237C80.0004 101.097 80.3004 100.269 80.9004 99.7532C81.5124 99.2252 82.4664 98.9612 83.7624 98.9612V100.671C83.1384 100.671 82.7004 100.791 82.4484 101.031C82.1964 101.259 82.0704 101.661 82.0704 102.237V102.939H83.9064V104.613ZM94.815 107.655C94.815 108.027 94.791 108.363 94.743 108.663H87.165C87.225 109.455 87.519 110.091 88.047 110.571C88.575 111.051 89.223 111.291 89.991 111.291C91.095 111.291 91.875 110.829 92.331 109.905H94.545C94.245 110.817 93.699 111.567 92.907 112.155C92.127 112.731 91.155 113.019 89.991 113.019C89.043 113.019 88.191 112.809 87.435 112.389C86.691 111.957 86.103 111.357 85.671 110.589C85.251 109.809 85.041 108.909 85.041 107.889C85.041 106.869 85.245 105.975 85.653 105.207C86.073 104.427 86.655 103.827 87.399 103.407C88.155 102.987 89.019 102.777 89.991 102.777C90.927 102.777 91.761 102.981 92.493 103.389C93.225 103.797 93.795 104.373 94.203 105.117C94.611 105.849 94.815 106.695 94.815 107.655ZM92.673 107.007C92.661 106.251 92.391 105.645 91.863 105.189C91.335 104.733 90.681 104.505 89.901 104.505C89.193 104.505 88.587 104.733 88.083 105.189C87.579 105.633 87.279 106.239 87.183 107.007H92.673ZM105.924 107.655C105.924 108.027 105.9 108.363 105.852 108.663H98.2744C98.3344 109.455 98.6284 110.091 99.1564 110.571C99.6844 111.051 100.332 111.291 101.1 111.291C102.204 111.291 102.984 110.829 103.44 109.905H105.654C105.354 110.817 104.808 111.567 104.016 112.155C103.236 112.731 102.264 113.019 101.1 113.019C100.152 113.019 99.3004 112.809 98.5444 112.389C97.8004 111.957 97.2124 111.357 96.7804 110.589C96.3604 109.809 96.1504 108.909 96.1504 107.889C96.1504 106.869 96.3544 105.975 96.7624 105.207C97.1824 104.427 97.7644 103.827 98.5084 103.407C99.2644 102.987 100.128 102.777 101.1 102.777C102.036 102.777 102.87 102.981 103.602 103.389C104.334 103.797 104.904 104.373 105.312 105.117C105.72 105.849 105.924 106.695 105.924 107.655ZM103.782 107.007C103.77 106.251 103.5 105.645 102.972 105.189C102.444 104.733 101.79 104.505 101.01 104.505C100.302 104.505 99.6964 104.733 99.1924 105.189C98.6884 105.633 98.3884 106.239 98.2924 107.007H103.782Z" fill="#544A3E"/>
</svg>
