<svg width="109" height="125" viewBox="0 0 109 125" fill="none" xmlns="http://www.w3.org/2000/svg">
<path fill-rule="evenodd" clip-rule="evenodd" d="M36.672 10.7549C36.1579 10.755 35.6557 10.8843 35.23 11.1261C34.8043 11.3679 34.4746 11.7111 34.2833 12.1116L29.9591 21.1851H79.42L75.0958 12.1116C74.9046 11.7111 74.5749 11.3679 74.1492 11.1261C73.7234 10.8843 73.2212 10.755 72.7072 10.7549H36.672ZM34.1289 69.413L30.2474 48.2501H79.1317L75.2502 69.413C75.1568 69.923 74.849 70.388 74.3826 70.724C73.9162 71.06 73.3219 71.2448 72.7072 71.245H36.672C36.0573 71.2448 35.463 71.06 34.9965 70.724C34.5301 70.388 34.2223 69.923 34.1289 69.413ZM29.5473 26.5817H79.837C82.9257 26.5817 85.4225 28.405 85.4225 30.6518V38.7834C85.4225 41.0302 82.9206 42.8449 79.837 42.8449H29.5421C26.4534 42.8449 23.9567 41.0302 23.9567 38.7834V30.6518C23.9567 28.405 26.4637 26.5817 29.5473 26.5817Z" fill="#30261C" fill-opacity="0.8"/>
<path d="M5.34178 106.575C5.34178 105.351 5.62378 104.253 6.18778 103.281C6.76378 102.309 7.53778 101.553 8.50978 101.013C9.49378 100.461 10.5678 100.185 11.7318 100.185C13.0638 100.185 14.2458 100.515 15.2778 101.175C16.3218 101.823 17.0778 102.747 17.5458 103.947H15.0798C14.7558 103.287 14.3058 102.795 13.7298 102.471C13.1538 102.147 12.4878 101.985 11.7318 101.985C10.9038 101.985 10.1658 102.171 9.51778 102.543C8.86978 102.915 8.35978 103.449 7.98778 104.145C7.62778 104.841 7.44778 105.651 7.44778 106.575C7.44778 107.499 7.62778 108.309 7.98778 109.005C8.35978 109.701 8.86978 110.241 9.51778 110.625C10.1658 110.997 10.9038 111.183 11.7318 111.183C12.4878 111.183 13.1538 111.021 13.7298 110.697C14.3058 110.373 14.7558 109.881 15.0798 109.221H17.5458C17.0778 110.421 16.3218 111.345 15.2778 111.993C14.2458 112.641 13.0638 112.965 11.7318 112.965C10.5558 112.965 9.48178 112.695 8.50978 112.155C7.53778 111.603 6.76378 110.841 6.18778 109.869C5.62378 108.897 5.34178 107.799 5.34178 106.575ZM28.9297 102.939V112.857H26.8777V111.687C26.5537 112.095 26.1277 112.419 25.5997 112.659C25.0837 112.887 24.5317 113.001 23.9437 113.001C23.1637 113.001 22.4617 112.839 21.8377 112.515C21.2257 112.191 20.7397 111.711 20.3797 111.075C20.0317 110.439 19.8577 109.671 19.8577 108.771V102.939H21.8917V108.465C21.8917 109.353 22.1137 110.037 22.5577 110.517C23.0017 110.985 23.6077 111.219 24.3757 111.219C25.1437 111.219 25.7497 110.985 26.1937 110.517C26.6497 110.037 26.8777 109.353 26.8777 108.465V102.939H28.9297ZM33.6891 104.397C34.0371 103.941 34.5111 103.557 35.1111 103.245C35.7111 102.933 36.3891 102.777 37.1451 102.777C38.0091 102.777 38.7951 102.993 39.5031 103.425C40.2231 103.845 40.7871 104.439 41.1951 105.207C41.6031 105.975 41.8071 106.857 41.8071 107.853C41.8071 108.849 41.6031 109.743 41.1951 110.535C40.7871 111.315 40.2231 111.927 39.5031 112.371C38.7951 112.803 38.0091 113.019 37.1451 113.019C36.3891 113.019 35.7171 112.869 35.1291 112.569C34.5411 112.257 34.0611 111.873 33.6891 111.417V117.573H31.6371V102.939H33.6891V104.397ZM39.7191 107.853C39.7191 107.169 39.5751 106.581 39.2871 106.089C39.0111 105.585 38.6391 105.207 38.1711 104.955C37.7151 104.691 37.2231 104.559 36.6951 104.559C36.1791 104.559 35.6871 104.691 35.2191 104.955C34.7631 105.219 34.3911 105.603 34.1031 106.107C33.8271 106.611 33.6891 107.205 33.6891 107.889C33.6891 108.573 33.8271 109.173 34.1031 109.689C34.3911 110.193 34.7631 110.577 35.2191 110.841C35.6871 111.105 36.1791 111.237 36.6951 111.237C37.2231 111.237 37.7151 111.105 38.1711 110.841C38.6391 110.565 39.0111 110.169 39.2871 109.653C39.5751 109.137 39.7191 108.537 39.7191 107.853ZM47.8281 106.575C47.8281 105.351 48.1101 104.253 48.6741 103.281C49.2501 102.309 50.0241 101.553 50.9961 101.013C51.9801 100.461 53.0541 100.185 54.2181 100.185C55.5501 100.185 56.7321 100.515 57.7641 101.175C58.8081 101.823 59.5641 102.747 60.0321 103.947H57.5661C57.2421 103.287 56.7921 102.795 56.2161 102.471C55.6401 102.147 54.9741 101.985 54.2181 101.985C53.3901 101.985 52.6521 102.171 52.0041 102.543C51.3561 102.915 50.8461 103.449 50.4741 104.145C50.1141 104.841 49.9341 105.651 49.9341 106.575C49.9341 107.499 50.1141 108.309 50.4741 109.005C50.8461 109.701 51.3561 110.241 52.0041 110.625C52.6521 110.997 53.3901 111.183 54.2181 111.183C54.9741 111.183 55.6401 111.021 56.2161 110.697C56.7921 110.373 57.2421 109.881 57.5661 109.221H60.0321C59.5641 110.421 58.8081 111.345 57.7641 111.993C56.7321 112.641 55.5501 112.965 54.2181 112.965C53.0421 112.965 51.9681 112.695 50.9961 112.155C50.0241 111.603 49.2501 110.841 48.6741 109.869C48.1101 108.897 47.8281 107.799 47.8281 106.575ZM66.736 113.019C65.8 113.019 64.954 112.809 64.198 112.389C63.442 111.957 62.848 111.357 62.416 110.589C61.984 109.809 61.768 108.909 61.768 107.889C61.768 106.881 61.99 105.987 62.434 105.207C62.878 104.427 63.484 103.827 64.252 103.407C65.02 102.987 65.878 102.777 66.826 102.777C67.774 102.777 68.632 102.987 69.4 103.407C70.168 103.827 70.774 104.427 71.218 105.207C71.662 105.987 71.884 106.881 71.884 107.889C71.884 108.897 71.656 109.791 71.2 110.571C70.744 111.351 70.12 111.957 69.328 112.389C68.548 112.809 67.684 113.019 66.736 113.019ZM66.736 111.237C67.264 111.237 67.756 111.111 68.212 110.859C68.68 110.607 69.058 110.229 69.346 109.725C69.634 109.221 69.778 108.609 69.778 107.889C69.778 107.169 69.64 106.563 69.364 106.071C69.088 105.567 68.722 105.189 68.266 104.937C67.81 104.685 67.318 104.559 66.79 104.559C66.262 104.559 65.77 104.685 65.314 104.937C64.87 105.189 64.516 105.567 64.252 106.071C63.988 106.563 63.856 107.169 63.856 107.889C63.856 108.957 64.126 109.785 64.666 110.373C65.218 110.949 65.908 111.237 66.736 111.237ZM78.0705 104.613H76.2345V112.857H74.1645V104.613H72.9945V102.939H74.1645V102.237C74.1645 101.097 74.4645 100.269 75.0645 99.7532C75.6765 99.2252 76.6305 98.9612 77.9265 98.9612V100.671C77.3025 100.671 76.8645 100.791 76.6125 101.031C76.3605 101.259 76.2345 101.661 76.2345 102.237V102.939H78.0705V104.613ZM84.0471 104.613H82.2111V112.857H80.1411V104.613H78.9711V102.939H80.1411V102.237C80.1411 101.097 80.4411 100.269 81.0411 99.7532C81.6531 99.2252 82.6071 98.9612 83.9031 98.9612V100.671C83.2791 100.671 82.8411 100.791 82.5891 101.031C82.3371 101.259 82.2111 101.661 82.2111 102.237V102.939H84.0471V104.613ZM94.9556 107.655C94.9556 108.027 94.9316 108.363 94.8836 108.663H87.3056C87.3656 109.455 87.6596 110.091 88.1876 110.571C88.7156 111.051 89.3636 111.291 90.1316 111.291C91.2356 111.291 92.0156 110.829 92.4716 109.905H94.6856C94.3856 110.817 93.8396 111.567 93.0476 112.155C92.2676 112.731 91.2956 113.019 90.1316 113.019C89.1836 113.019 88.3316 112.809 87.5756 112.389C86.8316 111.957 86.2436 111.357 85.8116 110.589C85.3916 109.809 85.1816 108.909 85.1816 107.889C85.1816 106.869 85.3856 105.975 85.7936 105.207C86.2136 104.427 86.7956 103.827 87.5396 103.407C88.2956 102.987 89.1596 102.777 90.1316 102.777C91.0676 102.777 91.9016 102.981 92.6336 103.389C93.3656 103.797 93.9356 104.373 94.3436 105.117C94.7516 105.849 94.9556 106.695 94.9556 107.655ZM92.8136 107.007C92.8016 106.251 92.5316 105.645 92.0036 105.189C91.4756 104.733 90.8216 104.505 90.0416 104.505C89.3336 104.505 88.7276 104.733 88.2236 105.189C87.7196 105.633 87.4196 106.239 87.3236 107.007H92.8136ZM106.065 107.655C106.065 108.027 106.041 108.363 105.993 108.663H98.415C98.475 109.455 98.769 110.091 99.297 110.571C99.825 111.051 100.473 111.291 101.241 111.291C102.345 111.291 103.125 110.829 103.581 109.905H105.795C105.495 110.817 104.949 111.567 104.157 112.155C103.377 112.731 102.405 113.019 101.241 113.019C100.293 113.019 99.441 112.809 98.685 112.389C97.941 111.957 97.353 111.357 96.921 110.589C96.501 109.809 96.291 108.909 96.291 107.889C96.291 106.869 96.495 105.975 96.903 105.207C97.323 104.427 97.905 103.827 98.649 103.407C99.405 102.987 100.269 102.777 101.241 102.777C102.177 102.777 103.011 102.981 103.743 103.389C104.475 103.797 105.045 104.373 105.453 105.117C105.861 105.849 106.065 106.695 106.065 107.655ZM103.923 107.007C103.911 106.251 103.641 105.645 103.113 105.189C102.585 104.733 101.931 104.505 101.151 104.505C100.443 104.505 99.837 104.733 99.333 105.189C98.829 105.633 98.529 106.239 98.433 107.007H103.923Z" fill="#544A3E"/>
</svg>
