<svg width="83" height="116" viewBox="0 0 83 116" fill="none" xmlns="http://www.w3.org/2000/svg">
<path d="M65.1702 17.15H44.5901V6.85999H37.7301V17.15H17.15C11.4768 17.15 6.85999 21.7668 6.85999 27.4401V61.7402C6.85999 65.5235 9.93671 68.6002 13.72 68.6002H68.6002C72.3835 68.6002 75.4602 65.5235 75.4602 61.7402V27.4401C75.4602 21.7668 70.8434 17.15 65.1702 17.15ZM17.15 24.01H65.1702C66.0799 24.01 66.9523 24.3714 67.5956 25.0147C68.2388 25.6579 68.6002 26.5304 68.6002 27.4401L68.6036 38.1417C65.5303 38.9237 63.5649 40.6593 62.0317 42.0245C60.2927 43.568 59.1436 44.5901 56.5849 44.5901C54.0295 44.5901 52.8804 43.568 51.1414 42.0279C49.1006 40.2134 46.3085 37.7301 41.1429 37.7301C35.9808 37.7301 33.1888 40.2134 31.1479 42.0279C29.4089 43.5714 28.2633 44.5901 25.7079 44.5901C23.1594 44.5901 22.0138 43.5714 20.2816 42.0279C18.7484 40.6627 16.7899 38.9237 13.72 38.1417V27.4401C13.72 26.5304 14.0814 25.6579 14.7246 25.0147C15.3679 24.3714 16.2403 24.01 17.15 24.01ZM13.72 61.7402V45.5711C14.3751 45.993 15.0028 46.5109 15.7197 47.1523C17.7606 48.9668 20.5492 51.4501 25.7079 51.4501C30.8666 51.4501 33.6621 48.9668 35.7029 47.1523C37.442 45.6088 38.5876 44.5901 41.1429 44.5901C43.6983 44.5901 44.8474 45.6122 46.5864 47.1523C48.6272 48.9668 51.4193 51.4501 56.5849 51.4501C61.7505 51.4501 64.5459 48.9668 66.5868 47.1523C67.3105 46.5075 67.9416 45.9861 68.6036 45.5608L68.607 61.7402H13.72Z" fill="#30261C" fill-opacity="0.8"/>
<path d="M8.72909 93.103C10.0611 93.103 11.2251 93.361 12.2211 93.877C13.2291 94.381 14.0031 95.113 14.5431 96.073C15.0951 97.021 15.3711 98.131 15.3711 99.403C15.3711 100.675 15.0951 101.779 14.5431 102.715C14.0031 103.651 13.2291 104.371 12.2211 104.875C11.2251 105.367 10.0611 105.613 8.72909 105.613H4.64309V93.103H8.72909ZM8.72909 103.939C10.1931 103.939 11.3151 103.543 12.0951 102.751C12.8751 101.959 13.2651 100.843 13.2651 99.403C13.2651 97.951 12.8751 96.817 12.0951 96.001C11.3151 95.185 10.1931 94.777 8.72909 94.777H6.69509V103.939H8.72909ZM26.4948 100.411C26.4948 100.783 26.4708 101.119 26.4228 101.419H18.8448C18.9048 102.211 19.1988 102.847 19.7268 103.327C20.2548 103.807 20.9028 104.047 21.6708 104.047C22.7748 104.047 23.5548 103.585 24.0108 102.661H26.2248C25.9248 103.573 25.3788 104.323 24.5868 104.911C23.8068 105.487 22.8348 105.775 21.6708 105.775C20.7228 105.775 19.8708 105.565 19.1148 105.145C18.3708 104.713 17.7828 104.113 17.3508 103.345C16.9308 102.565 16.7208 101.665 16.7208 100.645C16.7208 99.625 16.9248 98.731 17.3328 97.963C17.7528 97.183 18.3348 96.583 19.0788 96.163C19.8348 95.743 20.6988 95.533 21.6708 95.533C22.6068 95.533 23.4408 95.737 24.1728 96.145C24.9048 96.553 25.4748 97.129 25.8828 97.873C26.2908 98.605 26.4948 99.451 26.4948 100.411ZM24.3528 99.763C24.3408 99.007 24.0708 98.401 23.5428 97.945C23.0148 97.489 22.3608 97.261 21.5808 97.261C20.8728 97.261 20.2668 97.489 19.7628 97.945C19.2588 98.389 18.9588 98.995 18.8628 99.763H24.3528ZM32.1142 105.775C31.3342 105.775 30.6322 105.637 30.0082 105.361C29.3962 105.073 28.9102 104.689 28.5502 104.209C28.1902 103.717 27.9982 103.171 27.9742 102.571H30.0982C30.1342 102.991 30.3322 103.345 30.6922 103.633C31.0642 103.909 31.5262 104.047 32.0782 104.047C32.6542 104.047 33.0982 103.939 33.4102 103.723C33.7342 103.495 33.8962 103.207 33.8962 102.859C33.8962 102.487 33.7162 102.211 33.3562 102.031C33.0082 101.851 32.4502 101.653 31.6822 101.437C30.9382 101.233 30.3322 101.035 29.8642 100.843C29.3962 100.651 28.9882 100.357 28.6402 99.961C28.3042 99.565 28.1362 99.043 28.1362 98.395C28.1362 97.867 28.2922 97.387 28.6042 96.955C28.9162 96.511 29.3602 96.163 29.9362 95.911C30.5242 95.659 31.1962 95.533 31.9522 95.533C33.0802 95.533 33.9862 95.821 34.6702 96.397C35.3662 96.961 35.7382 97.735 35.7862 98.719H33.7342C33.6982 98.275 33.5182 97.921 33.1942 97.657C32.8702 97.393 32.4322 97.261 31.8802 97.261C31.3402 97.261 30.9262 97.363 30.6382 97.567C30.3502 97.771 30.2062 98.041 30.2062 98.377C30.2062 98.641 30.3022 98.863 30.4942 99.043C30.6862 99.223 30.9202 99.367 31.1962 99.475C31.4722 99.571 31.8802 99.697 32.4202 99.853C33.1402 100.045 33.7282 100.243 34.1842 100.447C34.6522 100.639 35.0542 100.927 35.3902 101.311C35.7262 101.695 35.9002 102.205 35.9122 102.841C35.9122 103.405 35.7562 103.909 35.4442 104.353C35.1322 104.797 34.6882 105.145 34.1122 105.397C33.5482 105.649 32.8822 105.775 32.1142 105.775ZM41.7294 105.775C40.9494 105.775 40.2474 105.637 39.6234 105.361C39.0114 105.073 38.5254 104.689 38.1654 104.209C37.8054 103.717 37.6134 103.171 37.5894 102.571H39.7134C39.7494 102.991 39.9474 103.345 40.3074 103.633C40.6794 103.909 41.1414 104.047 41.6934 104.047C42.2694 104.047 42.7134 103.939 43.0254 103.723C43.3494 103.495 43.5114 103.207 43.5114 102.859C43.5114 102.487 43.3314 102.211 42.9714 102.031C42.6234 101.851 42.0654 101.653 41.2974 101.437C40.5534 101.233 39.9474 101.035 39.4794 100.843C39.0114 100.651 38.6034 100.357 38.2554 99.961C37.9194 99.565 37.7514 99.043 37.7514 98.395C37.7514 97.867 37.9074 97.387 38.2194 96.955C38.5314 96.511 38.9754 96.163 39.5514 95.911C40.1394 95.659 40.8114 95.533 41.5674 95.533C42.6954 95.533 43.6014 95.821 44.2854 96.397C44.9814 96.961 45.3534 97.735 45.4014 98.719H43.3494C43.3134 98.275 43.1334 97.921 42.8094 97.657C42.4854 97.393 42.0474 97.261 41.4954 97.261C40.9554 97.261 40.5414 97.363 40.2534 97.567C39.9654 97.771 39.8214 98.041 39.8214 98.377C39.8214 98.641 39.9174 98.863 40.1094 99.043C40.3014 99.223 40.5354 99.367 40.8114 99.475C41.0874 99.571 41.4954 99.697 42.0354 99.853C42.7554 100.045 43.3434 100.243 43.7994 100.447C44.2674 100.639 44.6694 100.927 45.0054 101.311C45.3414 101.695 45.5154 102.205 45.5274 102.841C45.5274 103.405 45.3714 103.909 45.0594 104.353C44.7474 104.797 44.3034 105.145 43.7274 105.397C43.1634 105.649 42.4974 105.775 41.7294 105.775ZM56.8347 100.411C56.8347 100.783 56.8107 101.119 56.7627 101.419H49.1847C49.2447 102.211 49.5387 102.847 50.0667 103.327C50.5947 103.807 51.2427 104.047 52.0107 104.047C53.1147 104.047 53.8947 103.585 54.3507 102.661H56.5647C56.2647 103.573 55.7187 104.323 54.9267 104.911C54.1467 105.487 53.1747 105.775 52.0107 105.775C51.0627 105.775 50.2107 105.565 49.4547 105.145C48.7107 104.713 48.1227 104.113 47.6907 103.345C47.2707 102.565 47.0607 101.665 47.0607 100.645C47.0607 99.625 47.2647 98.731 47.6727 97.963C48.0927 97.183 48.6747 96.583 49.4187 96.163C50.1747 95.743 51.0387 95.533 52.0107 95.533C52.9467 95.533 53.7807 95.737 54.5127 96.145C55.2447 96.553 55.8147 97.129 56.2227 97.873C56.6307 98.605 56.8347 99.451 56.8347 100.411ZM54.6927 99.763C54.6807 99.007 54.4107 98.401 53.8827 97.945C53.3547 97.489 52.7007 97.261 51.9207 97.261C51.2127 97.261 50.6067 97.489 50.1027 97.945C49.5987 98.389 49.2987 98.995 49.2027 99.763H54.6927ZM60.906 97.135C61.206 96.631 61.602 96.241 62.094 95.965C62.598 95.677 63.192 95.533 63.876 95.533V97.657H63.354C62.55 97.657 61.938 97.861 61.518 98.269C61.11 98.677 60.906 99.385 60.906 100.393V105.613H58.854V95.695H60.906V97.135ZM68.1562 97.369V102.859C68.1562 103.231 68.2402 103.501 68.4082 103.669C68.5882 103.825 68.8882 103.903 69.3082 103.903H70.5682V105.613H68.9482C68.0242 105.613 67.3162 105.397 66.8242 104.965C66.3322 104.533 66.0862 103.831 66.0862 102.859V97.369H64.9162V95.695H66.0862V93.229H68.1562V95.695H70.5682V97.369H68.1562Z" fill="#544A3E"/>
</svg>
