<svg width="98" height="125" viewBox="0 0 98 125" fill="none" xmlns="http://www.w3.org/2000/svg">
<path d="M72.5764 29.3609H15.9813C15.299 29.3609 14.6447 29.632 14.1622 30.1144C13.6798 30.5969 13.4088 31.2512 13.4088 31.9335V47.3685C13.4164 51.7482 14.3531 56.0764 16.1568 60.0673C17.9605 64.0583 20.5902 67.6213 23.8724 70.5211H15.9813C15.299 70.5211 14.6447 70.7921 14.1622 71.2745C13.6798 71.757 13.4088 72.4113 13.4088 73.0936C13.4088 73.7759 13.6798 74.4302 14.1622 74.9126C14.6447 75.3951 15.299 75.6661 15.9813 75.6661H72.5764C73.2587 75.6661 73.913 75.3951 74.3955 74.9126C74.8779 74.4302 75.1489 73.7759 75.1489 73.0936C75.1489 72.4113 74.8779 71.757 74.3955 71.2745C73.913 70.7921 73.2587 70.5211 72.5764 70.5211H64.6853C68.625 67.0291 71.6126 62.5931 73.3675 57.6296C76.6349 57.4283 79.7026 55.9887 81.9456 53.6042C84.1885 51.2196 85.4378 48.0696 85.439 44.796V42.2235C85.439 38.8121 84.0838 35.5405 81.6716 33.1283C79.2594 30.7161 75.9878 29.3609 72.5764 29.3609ZM80.294 44.796C80.2928 46.4603 79.7537 48.0797 78.7569 49.4126C77.7601 50.7455 76.3592 51.7204 74.7631 52.192C75.0177 50.5967 75.1467 48.9839 75.1489 47.3685V34.9497C76.6532 35.4816 77.9557 36.4666 78.8771 37.7692C79.7985 39.0718 80.2935 40.628 80.294 42.2235V44.796ZM41.7063 21.6434V11.3534C41.7063 10.6711 41.9774 10.0168 42.4598 9.53435C42.9423 9.05191 43.5966 8.78088 44.2789 8.78088C44.9611 8.78088 45.6154 9.05191 46.0979 9.53435C46.5803 10.0168 46.8514 10.6711 46.8514 11.3534V21.6434C46.8514 22.3257 46.5803 22.98 46.0979 23.4625C45.6154 23.9449 44.9611 24.2159 44.2789 24.2159C43.5966 24.2159 42.9423 23.9449 42.4598 23.4625C41.9774 22.98 41.7063 22.3257 41.7063 21.6434ZM51.9964 21.6434V11.3534C51.9964 10.6711 52.2674 10.0168 52.7498 9.53435C53.2323 9.05191 53.8866 8.78088 54.5689 8.78088C55.2512 8.78088 55.9055 9.05191 56.3879 9.53435C56.8704 10.0168 57.1414 10.6711 57.1414 11.3534V21.6434C57.1414 22.3257 56.8704 22.98 56.3879 23.4625C55.9055 23.9449 55.2512 24.2159 54.5689 24.2159C53.8866 24.2159 53.2323 23.9449 52.7498 23.4625C52.2674 22.98 51.9964 22.3257 51.9964 21.6434ZM31.4163 21.6434V11.3534C31.4163 10.6711 31.6873 10.0168 32.1698 9.53435C32.6522 9.05191 33.3065 8.78088 33.9888 8.78088C34.6711 8.78088 35.3254 9.05191 35.8079 9.53435C36.2903 10.0168 36.5613 10.6711 36.5613 11.3534V21.6434C36.5613 22.3257 36.2903 22.98 35.8079 23.4625C35.3254 23.9449 34.6711 24.2159 33.9888 24.2159C33.3065 24.2159 32.6522 23.9449 32.1698 23.4625C31.6873 22.98 31.4163 22.3257 31.4163 21.6434Z" fill="#30261C" fill-opacity="0.8"/>
<path d="M11.34 100.347V112.857H9.288V107.385H3.402V112.857H1.35V100.347H3.402V105.711H9.288V100.347H11.34ZM18.3434 113.019C17.4074 113.019 16.5614 112.809 15.8054 112.389C15.0494 111.957 14.4554 111.357 14.0234 110.589C13.5914 109.809 13.3754 108.909 13.3754 107.889C13.3754 106.881 13.5974 105.987 14.0414 105.207C14.4854 104.427 15.0914 103.827 15.8594 103.407C16.6274 102.987 17.4854 102.777 18.4334 102.777C19.3814 102.777 20.2394 102.987 21.0074 103.407C21.7754 103.827 22.3814 104.427 22.8254 105.207C23.2694 105.987 23.4914 106.881 23.4914 107.889C23.4914 108.897 23.2634 109.791 22.8074 110.571C22.3514 111.351 21.7274 111.957 20.9354 112.389C20.1554 112.809 19.2914 113.019 18.3434 113.019ZM18.3434 111.237C18.8714 111.237 19.3634 111.111 19.8194 110.859C20.2874 110.607 20.6654 110.229 20.9534 109.725C21.2414 109.221 21.3854 108.609 21.3854 107.889C21.3854 107.169 21.2474 106.563 20.9714 106.071C20.6954 105.567 20.3294 105.189 19.8734 104.937C19.4174 104.685 18.9254 104.559 18.3974 104.559C17.8694 104.559 17.3774 104.685 16.9214 104.937C16.4774 105.189 16.1234 105.567 15.8594 106.071C15.5954 106.563 15.4634 107.169 15.4634 107.889C15.4634 108.957 15.7334 109.785 16.2734 110.373C16.8254 110.949 17.5154 111.237 18.3434 111.237ZM27.9139 104.613V110.103C27.9139 110.475 27.9979 110.745 28.1659 110.913C28.3459 111.069 28.6459 111.147 29.0659 111.147H30.3259V112.857H28.7059C27.7819 112.857 27.0739 112.641 26.5819 112.209C26.0899 111.777 25.8439 111.075 25.8439 110.103V104.613H24.6739V102.939H25.8439V100.473H27.9139V102.939H30.3259V104.613H27.9139ZM36.209 106.575C36.209 105.351 36.491 104.253 37.055 103.281C37.631 102.309 38.405 101.553 39.377 101.013C40.361 100.461 41.435 100.185 42.599 100.185C43.931 100.185 45.113 100.515 46.145 101.175C47.189 101.823 47.945 102.747 48.413 103.947H45.947C45.623 103.287 45.173 102.795 44.597 102.471C44.021 102.147 43.355 101.985 42.599 101.985C41.771 101.985 41.033 102.171 40.385 102.543C39.737 102.915 39.227 103.449 38.855 104.145C38.495 104.841 38.315 105.651 38.315 106.575C38.315 107.499 38.495 108.309 38.855 109.005C39.227 109.701 39.737 110.241 40.385 110.625C41.033 110.997 41.771 111.183 42.599 111.183C43.355 111.183 44.021 111.021 44.597 110.697C45.173 110.373 45.623 109.881 45.947 109.221H48.413C47.945 110.421 47.189 111.345 46.145 111.993C45.113 112.641 43.931 112.965 42.599 112.965C41.423 112.965 40.349 112.695 39.377 112.155C38.405 111.603 37.631 110.841 37.055 109.869C36.491 108.897 36.209 107.799 36.209 106.575ZM55.1168 113.019C54.1808 113.019 53.3348 112.809 52.5788 112.389C51.8228 111.957 51.2288 111.357 50.7968 110.589C50.3648 109.809 50.1488 108.909 50.1488 107.889C50.1488 106.881 50.3708 105.987 50.8148 105.207C51.2588 104.427 51.8648 103.827 52.6328 103.407C53.4008 102.987 54.2588 102.777 55.2068 102.777C56.1548 102.777 57.0128 102.987 57.7808 103.407C58.5488 103.827 59.1548 104.427 59.5988 105.207C60.0428 105.987 60.2648 106.881 60.2648 107.889C60.2648 108.897 60.0368 109.791 59.5808 110.571C59.1248 111.351 58.5008 111.957 57.7088 112.389C56.9288 112.809 56.0648 113.019 55.1168 113.019ZM55.1168 111.237C55.6448 111.237 56.1368 111.111 56.5928 110.859C57.0608 110.607 57.4388 110.229 57.7268 109.725C58.0148 109.221 58.1588 108.609 58.1588 107.889C58.1588 107.169 58.0208 106.563 57.7448 106.071C57.4688 105.567 57.1028 105.189 56.6468 104.937C56.1908 104.685 55.6988 104.559 55.1708 104.559C54.6428 104.559 54.1508 104.685 53.6948 104.937C53.2508 105.189 52.8968 105.567 52.6328 106.071C52.3688 106.563 52.2368 107.169 52.2368 107.889C52.2368 108.957 52.5068 109.785 53.0468 110.373C53.5988 110.949 54.2888 111.237 55.1168 111.237ZM66.4514 104.613H64.6154V112.857H62.5454V104.613H61.3754V102.939H62.5454V102.237C62.5454 101.097 62.8454 100.269 63.4454 99.7532C64.0574 99.2252 65.0114 98.9612 66.3074 98.9612V100.671C65.6834 100.671 65.2454 100.791 64.9934 101.031C64.7414 101.259 64.6154 101.661 64.6154 102.237V102.939H66.4514V104.613ZM72.4279 104.613H70.5919V112.857H68.5219V104.613H67.3519V102.939H68.5219V102.237C68.5219 101.097 68.8219 100.269 69.4219 99.7532C70.0339 99.2252 70.9879 98.9612 72.2839 98.9612V100.671C71.6599 100.671 71.2219 100.791 70.9699 101.031C70.7179 101.259 70.5919 101.661 70.5919 102.237V102.939H72.4279V104.613ZM83.3365 107.655C83.3365 108.027 83.3125 108.363 83.2645 108.663H75.6865C75.7465 109.455 76.0405 110.091 76.5685 110.571C77.0965 111.051 77.7445 111.291 78.5125 111.291C79.6165 111.291 80.3965 110.829 80.8525 109.905H83.0665C82.7665 110.817 82.2205 111.567 81.4285 112.155C80.6485 112.731 79.6765 113.019 78.5125 113.019C77.5645 113.019 76.7125 112.809 75.9565 112.389C75.2125 111.957 74.6245 111.357 74.1925 110.589C73.7725 109.809 73.5625 108.909 73.5625 107.889C73.5625 106.869 73.7665 105.975 74.1745 105.207C74.5945 104.427 75.1765 103.827 75.9205 103.407C76.6765 102.987 77.5405 102.777 78.5125 102.777C79.4485 102.777 80.2825 102.981 81.0145 103.389C81.7465 103.797 82.3165 104.373 82.7245 105.117C83.1325 105.849 83.3365 106.695 83.3365 107.655ZM81.1945 107.007C81.1825 106.251 80.9125 105.645 80.3845 105.189C79.8565 104.733 79.2025 104.505 78.4225 104.505C77.7145 104.505 77.1085 104.733 76.6045 105.189C76.1005 105.633 75.8005 106.239 75.7045 107.007H81.1945ZM94.4459 107.655C94.4459 108.027 94.4219 108.363 94.3739 108.663H86.7959C86.8559 109.455 87.1499 110.091 87.6779 110.571C88.2059 111.051 88.8539 111.291 89.6219 111.291C90.7259 111.291 91.5059 110.829 91.9619 109.905H94.1759C93.8759 110.817 93.3299 111.567 92.5379 112.155C91.7579 112.731 90.7859 113.019 89.6219 113.019C88.6739 113.019 87.8219 112.809 87.0659 112.389C86.3219 111.957 85.7339 111.357 85.3019 110.589C84.8819 109.809 84.6719 108.909 84.6719 107.889C84.6719 106.869 84.8759 105.975 85.2839 105.207C85.7039 104.427 86.2859 103.827 87.0299 103.407C87.7859 102.987 88.6499 102.777 89.6219 102.777C90.5579 102.777 91.3919 102.981 92.1239 103.389C92.8559 103.797 93.4259 104.373 93.8339 105.117C94.2419 105.849 94.4459 106.695 94.4459 107.655ZM92.3039 107.007C92.2919 106.251 92.0219 105.645 91.4939 105.189C90.9659 104.733 90.3119 104.505 89.5319 104.505C88.8239 104.505 88.2179 104.733 87.7139 105.189C87.2099 105.633 86.9099 106.239 86.8139 107.007H92.3039Z" fill="#544A3E"/>
</svg>
